#!OML:ASF F:\VICON\USERDATA\INSTALL\rory3\rory3.ASF
:FULLY-SPECIFIED
:DEGREES
329
root 0.452075 18.1238 26.5528 -2.13285 -2.28096 -5.87253
lowerback 11.0843 1.28802 4.83912
upperback 0.760371 2.42923 2.076
thorax -5.31369 1.10466 -0.922054
lowerneck -16.5721 -2.89015 -1.55422
upperneck 17.1865 -3.85255 1.36956
head 8.11597 -1.78834 0.258478
rclavicle 5.56597e-015 -5.76476e-015
rhumerus -25.7901 -13.3443 -81.6179
rradius 28.2338
rwrist 1.10009
rhand -17.1054 19.5203
rfingers 7.12502
rthumb 9.13359 -10.2619
lclavicle 5.56597e-015 -5.76476e-015
lhumerus -30.591 -0.148358 85.3156
lradius 27.5996
lwrist 9.08705
lhand -25.9424 15.0872
lfingers 7.12502
lthumb 0.601361 45.0661
rfemur -4.29055 3.15978 33.7782
rtibia 27.1901
rfoot -16.1275 -4.8286
rtoes 12.1818
lfemur -27.1152 4.40849 -13.4985
ltibia 58.4189
lfoot -6.2192 -4.00633
ltoes -9.31024
330
root 0.456523 18.1085 26.7118 -2.02674 -2.79245 -6.19714
lowerback 11.2242 1.42838 5.17327
upperback 0.630783 2.6771 2.14126
thorax -5.50521 1.21243 -1.084
lowerneck -16.2071 -2.82604 -1.56942
upperneck 17.0375 -3.74819 1.29618
head 7.99899 -1.75078 0.255011
rclavicle 3.96327e-015 -9.93923e-016
rhumerus -25.7015 -12.5147 -81.8413
rradius 28.8594
rwrist 0.416016
rhand -17.3048 20.9192
rfingers 7.12502
rthumb 8.94121 -8.87138
lclavicle 3.96327e-015 -9.93923e-016
lhumerus -30.9574 0.285245 85.1764
lradius 27.3973
lwrist 9.08856
lhand -26.2494 15.868
lfingers 7.12502
lthumb 0.304876 45.8475
rfemur -3.61882 3.46846 34.1795
rtibia 26.9001
rfoot -16.2124 -4.89987
rtoes 12.0876
lfemur -27.2088 4.52597 -13.165
ltibia 56.4783
lfoot -6.45251 -2.87269
ltoes -9.16046
331
root 0.461505 18.1035 26.8779 -1.88182 -3.17582 -6.48324
lowerback 11.1067 1.54707 5.52096
upperback 0.67694 2.86872 2.17633
thorax -5.36556 1.30268 -1.26509
lowerneck -16.3382 -2.79297 -1.66024
upperneck 17.0064 -3.68712 1.34473
head 8.01359 -1.72206 0.291481
rclavicle -1.00697e-014 -7.45443e-015
rhumerus -25.3111 -11.6602 -82.0998
rradius 29.3775
rwrist -0.188736
rhand -17.5723 21.0974
rfingers 7.12502
rthumb 8.68311 -8.70399
lclavicle -1.00697e-014 -7.45443e-015
lhumerus -30.9467 0.580286 85.0693
lradius 27.3155
lwrist 8.7498
lhand -26.4169 18.3467
lfingers 7.12502
lthumb 0.143063 48.3264
rfemur -3.00142 3.63789 34.5173
rtibia 26.5833
rfoot -16.2625 -5.01025
rtoes 11.1923
lfemur -27.4234 4.43652 -12.87
ltibia 54.1384
lfoot -6.36823 -1.83573
ltoes -8.54932
332
root 0.474135 18.0982 27.0456 -1.6222 -3.34385 -6.48637
lowerback 10.904 1.60163 5.65615
upperback 0.681633 2.93868 2.12037
thorax -5.23325 1.33708 -1.40166
lowerneck -16.5079 -2.74793 -1.79847
upperneck 16.9658 -3.61237 1.47114
head 8.03401 -1.68181 0.362778
rclavicle -1.31881e-014 -3.66758e-014
rhumerus -24.8562 -11.0167 -82.3077
rradius 29.8161
rwrist -0.560485
rhand -17.7995 21.1471
rfingers 7.12502
rthumb 8.46385 -8.66327
lclavicle -1.31881e-014 -3.66758e-014
lhumerus -31.137 0.934928 84.9578
lradius 27.4788
lwrist 8.40663
lhand -25.9108 19.6143
lfingers 7.12502
lthumb 0.631935 49.5931
rfemur -2.51602 3.49126 34.4507
rtibia 26.3203
rfoot -16.7474 -5.06565
rtoes 9.78984
lfemur -27.8474 4.02229 -12.9214
ltibia 51.6746
lfoot -6.15483 -0.789776
ltoes -9.61301
333
root 0.482709 18.0862 27.2044 -1.38663 -3.54003 -6.50061
lowerback 10.9832 1.69692 5.74152
upperback 0.54018 3.08638 2.0654
thorax -5.41035 1.39956 -1.53402
lowerneck -16.4876 -2.76141 -1.76431
upperneck 16.9251 -3.61326 1.3441
head 8.01361 -1.69322 0.315442
rclavicle 5.42682e-014 2.04748e-014
rhumerus -24.6426 -10.5138 -82.4175
rradius 30.389
rwrist -0.880705
rhand -17.8961 21.0883
rfingers 7.12502
rthumb 8.37063 -8.72583
lclavicle 5.42682e-014 2.04748e-014
lhumerus -31.3608 1.06209 84.8866
lradius 27.199
lwrist 8.31765
lhand -25.5017 20.1271
lfingers 7.12502
lthumb 1.02701 50.1043
rfemur -2.03439 3.42227 34.417
rtibia 26.0828
rfoot -17.0463 -4.56559
rtoes 10.7087
lfemur -28.0683 3.62742 -12.9027
ltibia 49.0436
lfoot -6.00146 0.29463
ltoes -9.56193
334
root 0.488384 18.0715 27.3665 -1.13536 -3.83925 -6.46085
lowerback 10.9102 1.80282 5.69973
upperback 0.44789 3.2195 2.03691
thorax -5.45881 1.46286 -1.55895
lowerneck -16.5425 -2.72834 -1.67168
upperneck 16.9114 -3.54312 1.11208
head 8.01123 -1.67719 0.23097
rclavicle -7.9079e-015 -2.88735e-014
rhumerus -24.4398 -10.2043 -82.4608
rradius 30.8858
rwrist -0.983909
rhand -17.7779 21.8698
rfingers 7.12502
rthumb 8.48464 -7.93979
lclavicle -7.9079e-015 -2.88735e-014
lhumerus -31.5372 1.17432 84.8703
lradius 26.8886
lwrist 8.67407
lhand -25.6649 19.6984
lfingers 7.12502
lthumb 0.869368 49.6764
rfemur -1.60631 3.62266 34.3597
rtibia 25.891
rfoot -17.5087 -4.37832
rtoes 10.4509
lfemur -28.0768 3.36857 -12.9196
ltibia 46.3243
lfoot -6.01393 1.44226
ltoes -8.90672
335
root 0.491954 18.0469 27.5322 -0.878012 -4.02369 -6.68979
lowerback 10.6005 1.8196 5.87187
upperback 0.531774 3.23788 2.11343
thorax -5.19063 1.47802 -1.56249
lowerneck -16.7449 -2.60959 -1.49132
upperneck 16.7854 -3.35927 0.807819
head 7.99309 -1.60852 0.12046
rclavicle 7.04443e-015 1.35174e-014
rhumerus -23.8266 -9.47671 -82.6638
rradius 31.1822
rwrist -1.58746
rhand -17.6026 22.483
rfingers 7.12502
rthumb 8.65384 -7.31965
lclavicle 7.04443e-015 1.35174e-014
lhumerus -31.5512 1.56949 84.765
lradius 26.8933
lwrist 8.46933
lhand -25.0518 20.7791
lfingers 7.12502
lthumb 1.46157 50.7539
rfemur -1.1408 3.80358 34.6076
rtibia 25.6608
rfoot -17.5652 -4.91795
rtoes 10.8572
lfemur -28.113 3.01996 -12.5906
ltibia 43.5354
lfoot -5.96834 2.28532
ltoes -8.00239
336
root 0.503032 18.0298 27.6882 -0.632518 -4.11201 -6.72922
lowerback 10.5585 1.87454 5.95755
upperback 0.521902 3.31792 2.11099
thorax -5.16729 1.51582 -1.62224
lowerneck -17.0711 -2.62012 -1.32667
upperneck 16.803 -3.36078 0.558392
head 8.04851 -1.62231 0.00620057
rclavicle 9.25591e-016 2.18663e-015
rhumerus -23.2513 -8.85446 -82.7531
rradius 31.4634
rwrist -2.11179
rhand -17.5026 22.5156
rfingers 7.12502
rthumb 8.75031 -7.28299
lclavicle 9.25591e-016 2.18663e-015
lhumerus -31.5535 2.34937 84.5122
lradius 26.9125
lwrist 6.86613
lhand -23.3963 24.5308
lfingers 7.12502
lthumb 3.06039 54.4886
rfemur -0.679632 3.90584 34.6379
rtibia 25.419
rfoot -17.7383 -4.90264
rtoes 11.1214
lfemur -28.1103 2.40325 -12.4634
ltibia 40.5152
lfoot -6.0435 2.8242
ltoes -6.13282
337
root 0.519951 18.0254 27.8496 -0.350878 -4.22895 -6.71637
lowerback 10.5416 1.92726 6.15159
upperback 0.382633 3.41211 2.01271
thorax -5.28139 1.55036 -1.84831
lowerneck -17.0745 -2.68052 -1.3556
upperneck 16.7876 -3.44662 0.611559
head 8.0463 -1.65946 0.01844
rclavicle 8.69683e-017 6.4605e-016
rhumerus -23.0287 -8.60915 -82.8102
rradius 31.8297
rwrist -2.17501
rhand -17.425 22.7195
rfingers 7.12502
rthumb 8.82526 -7.076
lclavicle 8.69683e-017 6.4605e-016
lhumerus -31.9218 2.39301 84.5056
lradius 26.5747
lwrist 7.85174
lhand -24.8053 19.6425
lfingers 7.12502
lthumb 1.69963 49.6155
rfemur -0.235661 3.89067 34.5484
rtibia 25.1432
rfoot -17.4194 -5.84761
rtoes 10.5847
lfemur -28.1037 1.65356 -12.3795
ltibia 37.3431
lfoot -6.08773 3.46652
ltoes -5.46268
